<svg width="1921" height="2019" viewBox="0 0 1921 2019" fill="none" xmlns="http://www.w3.org/2000/svg">
<path d="M0.5 618.441C0.5 618.441 369 620.012 445 618.441C521 616.87 683 605.135 718 601.207C753 597.279 892.5 588.592 1025.5 510.827C1158.5 433.062 1240 355.297 1240 355.297C1324.72 279.656 1368.42 232.725 1441.5 143.21C1441.5 143.21 1508 74.5981 1554 52.0935C1600 29.5888 1674 6.55533 1707 1.81872C1740 -2.91788 1817 1.80294 1849.5 13.5855C1882 25.3681 1920.5 42.6651 1920.5 42.6651V2019H0.5V618.441Z" fill="#FBF8FD"/>
</svg>
