<svg width="1920" height="8567" viewBox="0 0 1920 8567" fill="none" xmlns="http://www.w3.org/2000/svg">
<path d="M0 1095.91C0 1095.91 368.5 1098.7 444.5 1095.91C520.5 1093.13 682.5 1072.33 717.5 1065.37C752.5 1058.41 892 1043.02 1025 905.213C1158 767.409 1239.5 629.606 1239.5 629.606C1324.22 495.566 1367.92 412.402 1441 253.776C1441 253.776 1507.5 132.192 1553.5 92.3125C1599.5 52.433 1673.5 11.6164 1706.5 3.22288C1739.5 -5.17065 1816.5 3.19491 1849 24.0743C1881.5 44.9537 1920 75.6048 1920 75.6048V8567H0V1095.91Z" fill="#FBF8FD"/>
</svg>
